<svg fill="none" height="24" viewBox="0 0 24 24" width="24" xmlns="http://www.w3.org/2000/svg"><g stroke="#757575"><path d="m9 12c0 .7956.31607 1.5587.87868 2.1213.56262.5626 1.32572.8787 2.12132.8787s1.5587-.3161 2.1213-.8787.8787-1.3256.8787-2.1213" stroke-linecap="round"/><path d="m4.5 8.7111c0-.60112 0-.90169.08582-1.18512.08581-.28343.25253-.53351.58598-1.03368l.14073-.2111c.58129-.87193.87194-1.3079 1.31412-1.54455.44219-.23665.96615-.23665 2.01409-.23665h6.71856c1.0479 0 1.5719 0 2.014.23665.4422.23665.7329.67262 1.3142 1.54455l.1407.2111c.3334.50017.5002.75025.586 1.03368s.0858.584.0858 1.18512v6.7889c0 1.8856 0 2.8284-.5858 3.4142s-1.5286.5858-3.4142.5858h-7c-1.88562 0-2.82843 0-3.41421-.5858-.58579-.5858-.58579-1.5286-.58579-3.4142z"/><path d="m4.5 9.5h15" stroke-linecap="round"/></g></svg>
