<svg fill="none" height="24" viewBox="0 0 24 24" width="24" xmlns="http://www.w3.org/2000/svg"><path d="m17 20h5v-2c0-1.6569-1.3431-3-3-3-.9556 0-1.8069.4468-2.3562 1.1429m.3562 3.8571h-10m10 0v-2c0-.6562-.1264-1.283-.3562-1.8571m-9.6438 3.8571h-5v-2c0-1.6569 1.34315-3 3-3 .95561 0 1.80686.4468 2.35625 1.1429m-.35625 3.8571v-2c0-.6562.12642-1.283.35625-1.8571m0 0c.73725-1.8419 2.53857-3.1429 4.64375-3.1429 2.1052 0 3.9065 1.301 4.6438 3.1429m-1.6438-9.1429c0 1.65685-1.3431 3-3 3s-3-1.34315-3-3 1.3431-3 3-3 3 1.34315 3 3zm6 3c0 1.1046-.8954 2-2 2s-2-.8954-2-2c0-1.10457.8954-2 2-2s2 .89543 2 2zm-14 0c0 1.1046-.89543 2-2 2s-2-.8954-2-2c0-1.10457.89543-2 2-2s2 .89543 2 2z" stroke="#828282" stroke-linecap="round" stroke-linejoin="round" stroke-width="2"/></svg>
