<svg fill="none" height="24" viewBox="0 0 24 24" width="24" xmlns="http://www.w3.org/2000/svg"><g fill="#FF5000"><path d="m8.56976 16.0201c-.19 0-.37999-.07-.52999-.22-.29-.29-.29-.77 0-1.06l6.55003-6.54994c.29-.29.77-.29 1.06 0s.29.76999 0 1.05999l-6.55004 6.54995c-.15.15-.34.22-.53.22z"/><path d="m8.98001 11.1099c-1.09 0-1.98001-.89-1.98001-1.97999 0-1.09.89001-1.98001 1.98001-1.98001 1.08999 0 1.97999.89001 1.97999 1.98001 0 1.08999-.89 1.97999-1.97999 1.97999zm0-2.44999c-.26 0-.48001.21001-.48001.48001s.21001.47998.48001.47998.47998-.20998.47998-.47998-.21998-.48001-.47998-.48001z"/><path d="m15.519 16.8399c-1.09 0-1.9799-.89-1.9799-1.98s.8899-1.98 1.9799-1.98 1.9801.89 1.9801 1.98-.8901 1.98-1.9801 1.98zm0-2.45c-.26 0-.4799.21-.4799.48s.2099.48.4799.48.4801-.21.4801-.48-.2101-.48-.4801-.48z"/><path d="m12 22.75c-5.93 0-10.75-4.82-10.75-10.75s4.82-10.75 10.75-10.75 10.75 4.82 10.75 10.75-4.82 10.75-10.75 10.75zm0-20c-5.1 0-9.25 4.15-9.25 9.25s4.15 9.25 9.25 9.25 9.25-4.15 9.25-9.25-4.15-9.25-9.25-9.25z"/></g></svg>
