<svg fill="none" height="24" viewBox="0 0 24 24" width="24" xmlns="http://www.w3.org/2000/svg">
	<g stroke="#828282" stroke-linecap="round" stroke-linejoin="round" stroke-width="1.5">
		<path d="m8.67188 14.3298c0 1.29.99 2.33 2.22002 2.33h2.51c1.07 0 1.94-.91 1.94-2.03 0-1.22-.53-1.65-1.32-1.93l-4.03003-1.4c-.79-.28-1.31999-.71-1.31999-1.92996 0-1.12.86999-2.03 1.94002-2.03h2.51c1.23 0 2.22 1.04 2.22 2.33" />
		<path d="m12 6v12" />
		<path d="m12 22c5.5228 0 10-4.4772 10-10 0-5.52285-4.4772-10-10-10-5.52285 0-10 4.47715-10 10 0 5.5228 4.47715 10 10 10z" />
	</g>
</svg>
